<?xml version="1.0" encoding="UTF-8"?>
<svg id="Layer_1" data-name="Layer 1" xmlns="http://www.w3.org/2000/svg" xmlns:xlink="http://www.w3.org/1999/xlink" viewBox="0 0 225.21 90">
  <defs>
    <style>
      .cls-1 {
        fill: url(#linear-gradient-2);
      }

      .cls-2 {
        fill: #072a48;
      }

      .cls-3 {
        fill: url(#linear-gradient-3);
      }

      .cls-4 {
        fill: url(#linear-gradient);
      }
    </style>
    <linearGradient id="linear-gradient" x1="65.8" y1="15.48" x2="159.33" y2="15.48" gradientUnits="userSpaceOnUse">
      <stop offset="0" stop-color="#88151d"/>
      <stop offset="1" stop-color="#bd1f2a"/>
    </linearGradient>
    <linearGradient id="linear-gradient-2" x1="71.82" y1="29.46" x2="156.85" y2="29.46" xlink:href="#linear-gradient"/>
    <linearGradient id="linear-gradient-3" x1="84.72" y1="40.86" x2="153.64" y2="40.86" xlink:href="#linear-gradient"/>
  </defs>
  <g>
    <path class="cls-4" d="m68.52,30.95s-10.18-14.93,8.85-24.33C96.4-2.78,116.12.58,116.12.58c0,0,32.7,4.17,43.21,18.4,0,0-22.73-12.06-44.66-12.06s-33.63,6.27-33.63,6.27c0,0-13.34,5.79-12.52,17.76Z"/>
    <path class="cls-1" d="m81.42,46.37s-20.25-13.15-1.91-24.99c18.34-11.85,40.66-8.33,40.66-8.33,0,0,23.23,2.83,36.69,13.07,0,0-23.85-11.39-48.15-7.57s-29.04,12.61-29.04,12.61c0,0-4.59,6.57,1.76,15.21Z"/>
    <path class="cls-3" d="m104.73,56.68s-25.99-3.06-18.72-20.48,49.53-9.25,49.53-9.25c0,0,11.85,2.29,18.11,7.18,0,0-12.15-4.66-24.84-4.81s-25.37.99-32.25,6.5c-6.88,5.5-8.02,13.76,8.18,20.86Z"/>
    <path class="cls-2" d="m126.01,33.29c-10.77,14.1-27.86,15.31-27.86,15.31,17.01,2.89,29.79-11.31,32.43-14.52l-4.58-.79Z"/>
    <path class="cls-2" d="m135.62,34.96c-12.56,15.91-33.04,16.87-33.04,16.87,19.99,3.4,35.03-12.72,37.88-16.03l-4.84-.84Z"/>
    <path class="cls-2" d="m144.9,36.56c-13.42,17.61-36.51,18.52-36.51,18.52,23.01,3.91,39.9-16.31,41.05-17.73l-4.55-.79Z"/>
  </g>
  <g>
    <path d="m14.22,83.54c-.19.16-.54.37-1.06.64-.52.27-1.15.51-1.89.71-.75.21-1.57.3-2.48.29-1.38-.03-2.62-.28-3.7-.75-1.09-.47-2.01-1.11-2.76-1.92-.75-.81-1.33-1.74-1.73-2.79-.4-1.05-.6-2.17-.6-3.36,0-1.33.2-2.56.61-3.67.4-1.11.98-2.07,1.74-2.88.75-.81,1.66-1.44,2.7-1.88,1.05-.44,2.21-.67,3.48-.67,1.18,0,2.22.16,3.12.48.91.32,1.64.66,2.22,1.02l-1.36,3.26c-.4-.3-.93-.62-1.58-.94-.66-.33-1.42-.49-2.27-.49-.67,0-1.31.14-1.92.42-.61.28-1.15.67-1.62,1.18-.47.51-.84,1.1-1.11,1.77-.27.68-.41,1.41-.41,2.2,0,.84.12,1.61.37,2.31.25.7.6,1.3,1.06,1.8.46.5,1.01.89,1.66,1.16.64.27,1.37.41,2.18.41.94,0,1.74-.15,2.41-.45.67-.3,1.18-.62,1.52-.95l1.43,3.1Z"/>
    <path d="m21.51,85.28c-.97,0-1.85-.19-2.63-.58s-1.41-.99-1.87-1.8c-.46-.81-.69-1.84-.69-3.1,0-1.17.24-2.19.71-3.05.48-.86,1.1-1.52,1.88-1.99.78-.47,1.6-.7,2.48-.7,1.03,0,1.81.17,2.35.51.53.34.97.72,1.32,1.13l-.14.4.31-1.52h3.1v10.41h-3.33v-2.26l.26.71s-.13.09-.29.27c-.16.18-.39.4-.7.64-.31.25-.69.46-1.14.64-.45.18-.99.27-1.61.27Zm.95-2.72c.4,0,.75-.06,1.07-.18.32-.12.6-.29.83-.52.24-.23.44-.52.62-.87v-2.55c-.13-.35-.32-.65-.57-.89-.25-.25-.56-.44-.91-.57-.35-.13-.74-.2-1.17-.2-.48,0-.92.12-1.32.37-.41.25-.73.58-.96,1.01-.24.43-.36.92-.36,1.48s.13,1.06.38,1.5c.25.44.59.79,1.01,1.05.42.25.88.38,1.37.38Z"/>
    <path d="m34.75,74.59l.31,2.86-.07-.43c.3-.62.71-1.15,1.24-1.58.52-.44,1.04-.77,1.56-1.01.52-.24.91-.36,1.18-.36l-.17,3.33c-.78-.1-1.45.03-2,.38-.56.35-.98.81-1.29,1.38-.3.57-.45,1.16-.45,1.76v4.07h-3.31v-10.41h3Z"/>
    <path d="m42.49,70.02h3.33v4.53h2.52v2.6h-2.52v7.86h-3.33v-7.86h-1.62v-2.6h1.62v-4.53Z"/>
    <path d="m55.28,85.28c-.97,0-1.85-.19-2.63-.58s-1.41-.99-1.87-1.8c-.46-.81-.69-1.84-.69-3.1,0-1.17.24-2.19.71-3.05.48-.86,1.1-1.52,1.88-1.99.78-.47,1.6-.7,2.48-.7,1.03,0,1.81.17,2.35.51.53.34.97.72,1.32,1.13l-.14.4.31-1.52h3.1v10.41h-3.33v-2.26l.26.71s-.13.09-.29.27c-.16.18-.39.4-.7.64-.31.25-.69.46-1.14.64-.45.18-.99.27-1.61.27Zm.95-2.72c.4,0,.75-.06,1.07-.18.32-.12.6-.29.83-.52.24-.23.44-.52.62-.87v-2.55c-.13-.35-.32-.65-.57-.89-.25-.25-.56-.44-.91-.57-.35-.13-.74-.2-1.17-.2-.48,0-.92.12-1.32.37-.41.25-.73.58-.96,1.01-.24.43-.36.92-.36,1.48s.13,1.06.38,1.5c.25.44.59.79,1.01,1.05.42.25.88.38,1.37.38Z"/>
    <path d="m66.53,85v-7.5h-1.76v-2.95h1.76v-3.62c0-1.37.39-2.48,1.18-3.35.79-.87,1.93-1.3,3.42-1.3.44,0,.94.07,1.49.2.55.14,1.03.35,1.44.66l-1.41,2.41c-.16-.21-.35-.35-.56-.42s-.42-.11-.61-.11c-.48,0-.87.16-1.17.48-.3.32-.45.83-.45,1.52v3.53h3.14v2.95h-3.14v7.5h-3.33Z"/>
    <path d="m81.01,85.28c-1.27,0-2.35-.24-3.23-.71-.88-.48-1.55-1.14-2.01-1.98-.46-.84-.69-1.81-.69-2.91s.27-1.99.81-2.83c.54-.84,1.26-1.51,2.17-2.01.91-.5,1.91-.75,3.03-.75,1.49,0,2.72.43,3.68,1.3.96.87,1.58,2.12,1.87,3.75l-8.1,2.57-.74-1.81,5.86-1.98-.69.31c-.13-.41-.35-.77-.68-1.08-.33-.31-.81-.46-1.46-.46-.49,0-.93.12-1.3.35-.37.23-.66.56-.86.98-.2.42-.3.92-.3,1.49,0,.65.12,1.19.36,1.63.24.44.56.77.98.99.41.22.87.33,1.38.33.37,0,.72-.06,1.06-.19.34-.13.68-.29,1.01-.5l1.48,2.48c-.56.32-1.16.57-1.8.76-.64.19-1.25.29-1.82.29Z"/>
    <path d="m89.06,66.2h3.33v18.79h-3.33v-18.79Z"/>
    <path d="m95.83,66.2h3.33v18.79h-3.33v-18.79Z"/>
    <path d="m106.97,85.28c-.97,0-1.85-.19-2.63-.58s-1.41-.99-1.87-1.8c-.46-.81-.69-1.84-.69-3.1,0-1.17.24-2.19.71-3.05.48-.86,1.1-1.52,1.88-1.99.78-.47,1.6-.7,2.48-.7,1.03,0,1.81.17,2.35.51.53.34.97.72,1.32,1.13l-.14.4.31-1.52h3.1v10.41h-3.33v-2.26l.26.71s-.13.09-.29.27c-.16.18-.39.4-.7.64-.31.25-.69.46-1.14.64-.45.18-.99.27-1.61.27Zm.95-2.72c.4,0,.75-.06,1.07-.18.32-.12.6-.29.83-.52.24-.23.44-.52.62-.87v-2.55c-.13-.35-.32-.65-.57-.89-.25-.25-.56-.44-.91-.57-.35-.13-.74-.2-1.17-.2-.48,0-.92.12-1.32.37-.41.25-.73.58-.96,1.01-.24.43-.36.92-.36,1.48s.13,1.06.38,1.5c.25.44.59.79,1.01,1.05.42.25.88.38,1.37.38Z"/>
    <path d="m123.53,85l7.91-18.22h.19l7.91,18.22h-4l-5.05-12.81,2.5-1.72-6.05,14.53h-3.41Zm5.41-6.34h5.26l1.21,2.91h-7.55l1.07-2.91Z"/>
    <path d="m144.56,74.59l.26,1.86-.05-.17c.37-.65.88-1.18,1.55-1.58.67-.41,1.48-.61,2.45-.61s1.81.29,2.47.87c.66.58,1,1.33,1.01,2.25v7.79h-3.33v-6.55c-.02-.46-.14-.83-.37-1.11-.23-.28-.62-.42-1.16-.42-.51,0-.95.17-1.33.5-.38.33-.68.79-.88,1.36-.21.57-.31,1.23-.31,1.98v4.24h-3.33v-10.41h3.03Z"/>
    <path d="m160.07,85.28c-.97,0-1.85-.19-2.63-.58s-1.41-.99-1.87-1.8c-.46-.81-.69-1.84-.69-3.1,0-1.17.24-2.19.71-3.05.48-.86,1.1-1.52,1.88-1.99.78-.47,1.6-.7,2.48-.7,1.03,0,1.81.17,2.35.51.53.34.97.72,1.32,1.13l-.14.4.31-1.52h3.1v10.41h-3.33v-2.26l.26.71s-.13.09-.29.27c-.16.18-.39.4-.7.64-.31.25-.69.46-1.14.64-.45.18-.99.27-1.61.27Zm.95-2.72c.4,0,.75-.06,1.07-.18.32-.12.6-.29.83-.52.24-.23.44-.52.62-.87v-2.55c-.13-.35-.32-.65-.57-.89-.25-.25-.56-.44-.91-.57-.35-.13-.74-.2-1.17-.2-.48,0-.92.12-1.32.37-.41.25-.73.58-.96,1.01-.24.43-.36.92-.36,1.48s.13,1.06.38,1.5c.25.44.59.79,1.01,1.05.42.25.88.38,1.37.38Z"/>
    <path d="m170.31,66.2h3.33v18.79h-3.33v-18.79Z"/>
    <path d="m180.69,85.05l-5.1-10.46h3.74l3.93,8.79-2.57,1.67Zm-2.79,4.95l6.93-15.41h3l-6.72,15.41h-3.22Z"/>
    <path d="m190.77,70.02h3.33v4.53h2.52v2.6h-2.52v7.86h-3.33v-7.86h-1.62v-2.6h1.62v-4.53Z"/>
    <path d="m199.11,70.9c0-.49.19-.9.58-1.21.39-.32.81-.48,1.25-.48s.85.16,1.23.48c.37.32.56.72.56,1.21s-.19.89-.56,1.2c-.37.31-.78.46-1.23.46s-.86-.15-1.25-.46c-.39-.31-.58-.71-.58-1.2Zm.07,3.69h3.33v10.41h-3.33v-10.41Z"/>
    <path d="m214.78,84.07c-.46.37-1.04.66-1.73.88-.69.22-1.37.33-2.04.33-1.19,0-2.23-.22-3.11-.66s-1.56-1.06-2.05-1.88c-.48-.82-.73-1.81-.73-2.97s.26-2.15.79-2.97c.52-.82,1.21-1.44,2.06-1.87.85-.43,1.74-.64,2.68-.64s1.75.13,2.44.38c.69.25,1.28.59,1.77,1l-1.62,2.14c-.22-.17-.53-.35-.92-.54-.39-.18-.85-.27-1.37-.27-.46,0-.88.12-1.26.36-.38.24-.68.56-.91.98-.22.41-.33.89-.33,1.43,0,.51.12.98.36,1.41.24.43.57.77.99,1.01.42.25.92.37,1.49.37.37,0,.7-.05,1.01-.15.31-.1.58-.25.8-.44l1.67,2.1Z"/>
    <path d="m220.73,85.21c-.86,0-1.66-.15-2.39-.45-.74-.3-1.36-.72-1.87-1.26l1.38-1.83c.51.46.98.79,1.42.99.44.2.83.3,1.18.3.27,0,.51-.03.73-.08.21-.06.38-.14.51-.26.13-.12.19-.27.19-.46,0-.27-.11-.48-.32-.64-.21-.16-.49-.29-.82-.39-.33-.1-.69-.21-1.07-.32-.95-.3-1.64-.74-2.06-1.32-.42-.58-.63-1.21-.63-1.89,0-.52.14-1.05.42-1.58.28-.53.72-.98,1.33-1.33.61-.36,1.4-.54,2.37-.54.87,0,1.61.09,2.22.26.6.17,1.17.46,1.72.86l-1.26,1.95c-.3-.24-.64-.44-1.01-.61-.37-.17-.72-.26-1.04-.27-.29-.02-.53.02-.73.1-.2.08-.35.18-.46.31-.11.13-.17.26-.17.41-.02.3.1.54.35.71.25.17.56.31.94.41.38.1.75.21,1.12.33.51.16.94.37,1.31.64.37.27.65.59.85.96.2.37.3.82.3,1.35,0,.64-.16,1.23-.49,1.8-.33.56-.82,1.02-1.48,1.37-.66.35-1.5.52-2.51.52Z"/>
  </g>
</svg>